<svg xmlns="http://www.w3.org/2000/svg" viewBox="0 0 427.09 179.82"><defs><style>.cls-1{fill:#ffd400;}.cls-1,.cls-2{stroke:#ffd400;stroke-width:3px;}.cls-2{fill:none;}.cls-3{fill:#fff;}</style></defs><title>navsup-logo</title><circle class="cls-1" cx="196.16" cy="77.4" r="9.16"/><circle class="cls-2" cx="196.16" cy="77.4" r="23.04"/><circle class="cls-2" cx="196.17" cy="77.4" r="39.01"/><circle class="cls-2" cx="196.17" cy="77.4" r="57.05"/><circle class="cls-2" cx="196.17" cy="77.4" r="75.9"/><path class="cls-3" d="M445.17,153.46s5.9,2.4,16.83,2.4h44.58s12.68-.87,15.73-3.28-1.09-5.9-15.08-6.56h-6l-.36-5.7-7.94,2.75v2.84H462.11s-12.9.44-17,2.4l-5,2.48Z" transform="translate(-98.3 -23.48)"/><polygon class="cls-3" points="346.35 119.05 343.88 119.05 343.88 135.44 346.1 135.44 347.46 127.43 346.35 119.05"/><line class="cls-3" x1="341.98" y1="125.15" x2="341.98" y2="129.71"/><path class="cls-3" d="M237.61,70.78H216l-.85,4.61h-9.28v2.5h-6.71v1.92s-12.81.8-21.32-.53l1.6,8.24H281.83L289.61,76s-9.21,1.65-31.53,3.24v-5.6h-4.31v-4h-7.3L245.85,64h-6.14Z" transform="translate(-98.3 -23.48)"/><path class="cls-3" d="M352.72,53.19s-.22,4.76-5.17,3h-3.23s-5,1.7-5-3.3l-33.12-2.05,31.36-2.26a5.83,5.83,0,0,1,5.27-1.3V45.06a3.42,3.42,0,0,1,3.44-3,3,3,0,0,1,3.13,3l.08,2.38s4.16-.25,5.21,1.53l31.23,3.62Z" transform="translate(-98.3 -23.48)"/><polyline class="cls-3" points="253.26 24.85 259.82 9.95 254.36 25.51"/><polyline class="cls-3" points="242.33 24.41 235.78 9.51 241.24 25.07"/><path class="cls-3" d="M127.58,98.75h26.28l6,32H160l11.66-32h20.17L170.64,157h-26l-6.46-31.43H138L126.55,157H106.38Z" transform="translate(-98.3 -23.48)"/><path class="cls-3" d="M212.36,128.7l10.74-14.41h.18l-.09,14.41ZM191.59,157l10.14-13.45h20.69l.17,13.45H246.5c-1.76-19.38-3-38.85-3.86-58.24H215.5C199.71,118.13,183.21,138,166.71,157Z" transform="translate(-98.3 -23.48)"/><path class="cls-3" d="M324.06,98.75Q300,127.82,277.2,157H251.53c-.24-18.51-1.22-38.85-2.46-58.24h23.4l-1,40h.17l28.79-40Z" transform="translate(-98.3 -23.48)"/><path class="cls-3" d="M356.18,116.3A29.35,29.35,0,0,0,344,113.41c-1.74,0-6.35.18-7.27,2.71-1.91,5.24,16.49,11.52,11.79,24.44-3,8.38-11.71,17.55-30.13,17.55-4.71,0-25.3-1.13-31.19-1.75L301,138.82c4.16,2,12.4,3.49,17.56,3.49,1.92,0,6.46,0,7.32-2.36,1.82-5-16.08-12.66-11.25-25.93,3.31-9.08,13.13-16.41,27.1-16.41a102,102,0,0,1,20.06,1.83Z" transform="translate(-98.3 -23.48)"/><path class="cls-3" d="M389.63,98.75,377.9,131c-2.29,6.28-2.54,10.57,3.93,10.57s9.33-4.28,11.62-10.57l11.72-32.22H428L413,140.13c-3.3,9.08-15.8,18-37.19,18s-27.41-8.9-24.1-18l15.06-41.39Z" transform="translate(-98.3 -23.48)"/><path class="cls-3" d="M432.67,98.75h34.75c8.2,0,15.7,5.33,10.42,19.82-4,10.92-15.26,18.42-27.75,18.42-1.66,0-7.39-.11-10.61-.47l4.84-13.5h4.31c3.32,0,6.32-1.31,7.5-4.54,1.68-4.63-.76-4.89-3.82-4.89h-4.45L432.08,157h-20.6Z" transform="translate(-98.3 -23.48)"/><path class="cls-3" d="M102.08,193.24v8.49a.67.67,0,0,0,.15.48,1.15,1.15,0,0,0,.55.26v.31H98.3v-.31a1.15,1.15,0,0,0,.55-.26.68.68,0,0,0,.15-.48V189.89a.66.66,0,0,0-.15-.47,1.16,1.16,0,0,0-.55-.27v-.31h5.2v.31q-.48.11-.48.47a.83.83,0,0,0,.31.54l8.45,8v-8.3a.66.66,0,0,0-.15-.47,1.16,1.16,0,0,0-.55-.27v-.31h4.48v.31a1.16,1.16,0,0,0-.55.27.65.65,0,0,0-.15.47v11.84a.67.67,0,0,0,.15.48,1.15,1.15,0,0,0,.55.26v.31h-4.82v-.31q.47-.09.47-.44t-.55-.71Z" transform="translate(-98.3 -23.48)"/><path class="cls-3" d="M128.8,199.95h-5.57l-.82,1.57a1.19,1.19,0,0,0-.17.51q0,.36.6.49v.26h-4.06v-.26a1.13,1.13,0,0,0,.55-.23,2.2,2.2,0,0,0,.43-.64l4.52-8.58a1.5,1.5,0,0,0,.22-.65q0-.38-.52-.54v-.26h4.36v.26q-.53.13-.53.48a1.1,1.1,0,0,0,.17.54l4.69,8.61a2.83,2.83,0,0,0,.52.75,1.19,1.19,0,0,0,.6.26v.26h-4.54v-.26q.59-.09.59-.5a1.2,1.2,0,0,0-.18-.5Zm-.77-1.54-2-4-2,4Z" transform="translate(-98.3 -23.48)"/><path class="cls-3" d="M140.67,199.55l3.27-6.57a1.58,1.58,0,0,0,.21-.64c0-.23-.2-.39-.59-.46v-.26h4.21v.26a.91.91,0,0,0-.55.2,4.82,4.82,0,0,0-.53.89l-4.26,8.36a2.16,2.16,0,0,0-.27.69q0,.41.57.49v.26h-4.23v-.26q.57-.07.57-.49a2.2,2.2,0,0,0-.27-.68L134.51,193a4.79,4.79,0,0,0-.53-.89.9.9,0,0,0-.55-.2v-.26h4.38v.26q-.6.11-.59.46a1.58,1.58,0,0,0,.21.64Z" transform="translate(-98.3 -23.48)"/><path class="cls-3" d="M157.59,199.95H152l-.82,1.57a1.19,1.19,0,0,0-.17.51q0,.36.6.49v.26h-4.06v-.26a1.13,1.13,0,0,0,.55-.23,2.2,2.2,0,0,0,.43-.64l4.52-8.58a1.5,1.5,0,0,0,.22-.65q0-.38-.52-.54v-.26h4.36v.26q-.53.13-.53.48a1.1,1.1,0,0,0,.17.54l4.69,8.61a2.83,2.83,0,0,0,.52.75,1.19,1.19,0,0,0,.6.26v.26H158v-.26c.39-.06.59-.23.59-.5a1.2,1.2,0,0,0-.18-.5Zm-.77-1.54-2-4-2,4Z" transform="translate(-98.3 -23.48)"/><path class="cls-3" d="M168.24,200.93h7.56a.67.67,0,0,0,.42-.11.81.81,0,0,0,.23-.41h.29v2.9h-.29a.81.81,0,0,0-.23-.41.67.67,0,0,0-.42-.11H165v-.26a.94.94,0,0,0,.45-.21.53.53,0,0,0,.13-.38v-9.44a.53.53,0,0,0-.12-.38.94.94,0,0,0-.45-.21v-.26h3.82v.26a.86.86,0,0,0-.45.21.55.55,0,0,0-.12.39Z" transform="translate(-98.3 -23.48)"/><path class="cls-3" d="M200.13,190l-1.83,3.29-.31-.17c0-.07,0-.12,0-.16q0-.35-.65-.74a8.57,8.57,0,0,0-4.7-1.27,7.6,7.6,0,0,0-2.09.26,2.64,2.64,0,0,0-1.07.62,1.23,1.23,0,0,0-.41.89q0,.79,1,1.08a19.71,19.71,0,0,0,2.31.3l1.76.16a16.09,16.09,0,0,1,2.54.42,6.17,6.17,0,0,1,1.72.75,3.67,3.67,0,0,1,1.21,1.32,3.62,3.62,0,0,1,.44,1.75,3.75,3.75,0,0,1-1,2.61,5.76,5.76,0,0,1-2.93,1.55A13.43,13.43,0,0,1,193,203a14.65,14.65,0,0,1-6-1.32,3.51,3.51,0,0,0-.75-.26,1,1,0,0,0-.46.23l-.33-.16,1.66-3.43.33.15v.14a1.08,1.08,0,0,0,.48.84,6.3,6.3,0,0,0,2.26,1,10.79,10.79,0,0,0,2.9.43,6.46,6.46,0,0,0,2.55-.45,2.45,2.45,0,0,0,.93-.69,1.4,1.4,0,0,0,.35-.89,1.05,1.05,0,0,0-.82-1,11.88,11.88,0,0,0-2.31-.37L192,197.1a23.94,23.94,0,0,1-2.46-.31,6.93,6.93,0,0,1-1.44-.48,3.61,3.61,0,0,1-1.61-1.38A3.43,3.43,0,0,1,186,193a3.7,3.7,0,0,1,1.34-2.92,7.83,7.83,0,0,1,5.25-1.52,13.14,13.14,0,0,1,2.74.27,21.87,21.87,0,0,1,3.17,1,3.81,3.81,0,0,0,.8.23,1,1,0,0,0,.55-.23Z" transform="translate(-98.3 -23.48)"/><path class="cls-3" d="M216.41,192.48v6.27a4.14,4.14,0,0,1-.72,2.66q-1.3,1.58-5.36,1.58a9.58,9.58,0,0,1-4.49-.85,2.72,2.72,0,0,1-1.26-1.36,5.44,5.44,0,0,1-.34-2v-6.27a.54.54,0,0,0-.12-.38.94.94,0,0,0-.45-.21v-.26h3.82v.26a.87.87,0,0,0-.44.21.54.54,0,0,0-.13.39v5.57a6.33,6.33,0,0,0,.12,1.43,1.61,1.61,0,0,0,.44.78,5.7,5.7,0,0,0,5.92,0,1.64,1.64,0,0,0,.43-.78,6.32,6.32,0,0,0,.12-1.43v-5.57a.54.54,0,0,0-.12-.38.94.94,0,0,0-.45-.21v-.26H217v.26a.94.94,0,0,0-.45.21A.54.54,0,0,0,216.41,192.48Z" transform="translate(-98.3 -23.48)"/><path class="cls-3" d="M223.59,198.25v3.68a.52.52,0,0,0,.13.38.89.89,0,0,0,.44.21v.26h-3.82v-.26a.94.94,0,0,0,.45-.21.52.52,0,0,0,.13-.37v-9.45a.53.53,0,0,0-.12-.38.94.94,0,0,0-.45-.21v-.26H228a11.07,11.07,0,0,1,2.13.16,3.87,3.87,0,0,1,1.39.57,2.89,2.89,0,0,1,1,1.09,3.33,3.33,0,0,1,.35,1.5,3.08,3.08,0,0,1-2.19,3,9,9,0,0,1-2.65.31Zm0-1.85h4.09a4.41,4.41,0,0,0,1.72-.23,1.17,1.17,0,0,0,.51-.49,1.49,1.49,0,0,0,.19-.75,1.46,1.46,0,0,0-.19-.74,1.17,1.17,0,0,0-.51-.49,4.23,4.23,0,0,0-1.72-.24h-4.09Z" transform="translate(-98.3 -23.48)"/><path class="cls-3" d="M239.07,198.25v3.68a.52.52,0,0,0,.13.38.89.89,0,0,0,.44.21v.26h-3.82v-.26a.94.94,0,0,0,.45-.21.52.52,0,0,0,.13-.37v-9.45a.53.53,0,0,0-.12-.38.94.94,0,0,0-.45-.21v-.26h7.66a11.07,11.07,0,0,1,2.13.16,3.87,3.87,0,0,1,1.39.57,2.89,2.89,0,0,1,1,1.09,3.33,3.33,0,0,1,.35,1.5,3.08,3.08,0,0,1-2.19,3,9,9,0,0,1-2.65.31Zm0-1.85h4.09a4.41,4.41,0,0,0,1.72-.23,1.17,1.17,0,0,0,.51-.49,1.49,1.49,0,0,0,.19-.75,1.46,1.46,0,0,0-.19-.74,1.17,1.17,0,0,0-.51-.49,4.23,4.23,0,0,0-1.72-.24h-4.09Z" transform="translate(-98.3 -23.48)"/><path class="cls-3" d="M254.55,200.93h7.56a.67.67,0,0,0,.42-.11.81.81,0,0,0,.23-.41h.29v2.9h-.29a.81.81,0,0,0-.23-.41.67.67,0,0,0-.42-.11H251.3v-.26a.94.94,0,0,0,.45-.21.53.53,0,0,0,.13-.38v-9.44a.53.53,0,0,0-.12-.38,1,1,0,0,0-.45-.21v-.26h3.82v.26a.86.86,0,0,0-.45.21.54.54,0,0,0-.12.39Z" transform="translate(-98.3 -23.48)"/><path class="cls-3" d="M270.91,198.11v3.81a.52.52,0,0,0,.13.38,1,1,0,0,0,.44.21v.26h-3.82v-.26a1,1,0,0,0,.44-.21.52.52,0,0,0,.13-.38v-3.81l-4-5.08a5.35,5.35,0,0,0-.81-.88,1.37,1.37,0,0,0-.7-.27v-.26h4.86v.26q-.6.09-.6.5a1.76,1.76,0,0,0,.37.65l2.2,3,2.28-3a1.56,1.56,0,0,0,.37-.66.41.41,0,0,0-.16-.32.84.84,0,0,0-.44-.17v-.26h4.75v.26a1.37,1.37,0,0,0-.7.27,5.35,5.35,0,0,0-.81.88Z" transform="translate(-98.3 -23.48)"/><path class="cls-3" d="M299.37,190l-1.83,3.29-.31-.17c0-.07,0-.12,0-.16,0-.23-.22-.48-.65-.74a8.58,8.58,0,0,0-4.7-1.27,7.6,7.6,0,0,0-2.09.26,2.63,2.63,0,0,0-1.07.62,1.23,1.23,0,0,0-.41.89q0,.79,1,1.08a19.71,19.71,0,0,0,2.31.3l1.76.16a16.11,16.11,0,0,1,2.54.42,6.18,6.18,0,0,1,1.72.75,3.67,3.67,0,0,1,1.21,1.32,3.62,3.62,0,0,1,.44,1.75,3.75,3.75,0,0,1-1,2.61,5.76,5.76,0,0,1-2.93,1.55,13.44,13.44,0,0,1-3.18.36,14.66,14.66,0,0,1-6-1.32,3.49,3.49,0,0,0-.75-.26,1,1,0,0,0-.46.23l-.33-.16,1.66-3.43.33.15v.14a1.08,1.08,0,0,0,.48.84,6.3,6.3,0,0,0,2.26,1,10.8,10.8,0,0,0,2.9.43,6.46,6.46,0,0,0,2.55-.45,2.46,2.46,0,0,0,.93-.69,1.4,1.4,0,0,0,.35-.89,1.05,1.05,0,0,0-.82-1,11.89,11.89,0,0,0-2.31-.37l-1.73-.17a23.93,23.93,0,0,1-2.46-.31,6.92,6.92,0,0,1-1.44-.48,3.61,3.61,0,0,1-1.61-1.38,3.43,3.43,0,0,1-.53-1.9,3.7,3.7,0,0,1,1.34-2.92,7.83,7.83,0,0,1,5.25-1.52,13.14,13.14,0,0,1,2.74.27,21.88,21.88,0,0,1,3.17,1,3.8,3.8,0,0,0,.8.23,1,1,0,0,0,.55-.23Z" transform="translate(-98.3 -23.48)"/><path class="cls-3" d="M309.94,198.11v3.81a.52.52,0,0,0,.13.38,1,1,0,0,0,.44.21v.26h-3.82v-.26a1,1,0,0,0,.44-.21.52.52,0,0,0,.13-.38v-3.81l-4-5.08a5.36,5.36,0,0,0-.8-.88,1.37,1.37,0,0,0-.7-.27v-.26h4.86v.26q-.6.09-.6.5a1.74,1.74,0,0,0,.37.65l2.2,3,2.28-3a1.56,1.56,0,0,0,.37-.66.41.41,0,0,0-.16-.32.83.83,0,0,0-.44-.17v-.26h4.75v.26a1.37,1.37,0,0,0-.7.27,5.37,5.37,0,0,0-.8.88Z" transform="translate(-98.3 -23.48)"/><path class="cls-3" d="M328.67,192.56l-1.47,2.63-.25-.14a1,1,0,0,0,0-.13c0-.19-.17-.38-.52-.59a6.86,6.86,0,0,0-3.76-1,6.22,6.22,0,0,0-1.69.21,2.14,2.14,0,0,0-.86.5,1,1,0,0,0-.33.71q0,.63.84.86a16,16,0,0,0,1.86.24l1.41.13a13,13,0,0,1,2,.34,4.93,4.93,0,0,1,1.38.6,2.94,2.94,0,0,1,1,1.06,2.87,2.87,0,0,1,.36,1.4,3,3,0,0,1-.84,2.09,4.62,4.62,0,0,1-2.35,1.24,10.76,10.76,0,0,1-2.54.29,11.76,11.76,0,0,1-4.81-1.05,2.8,2.8,0,0,0-.6-.21.79.79,0,0,0-.37.18l-.26-.13,1.33-2.74.26.12v.11a.87.87,0,0,0,.39.67,5.05,5.05,0,0,0,1.81.82,8.65,8.65,0,0,0,2.32.34,5.2,5.2,0,0,0,2-.36,2,2,0,0,0,.75-.55,1.13,1.13,0,0,0,.28-.71.84.84,0,0,0-.66-.8,9.51,9.51,0,0,0-1.86-.3l-1.39-.14a19.43,19.43,0,0,1-2-.25,5.6,5.6,0,0,1-1.15-.38,2.9,2.9,0,0,1-1.29-1.1,2.74,2.74,0,0,1-.42-1.52,3,3,0,0,1,1.07-2.34,6.31,6.31,0,0,1,4.22-1.21,10.59,10.59,0,0,1,2.2.22,17.4,17.4,0,0,1,2.54.8,3.09,3.09,0,0,0,.64.18.8.8,0,0,0,.44-.18Z" transform="translate(-98.3 -23.48)"/><path class="cls-3" d="M338.68,193.47v8.46a.53.53,0,0,0,.13.38.93.93,0,0,0,.45.21v.26h-3.82v-.26a.94.94,0,0,0,.45-.21.54.54,0,0,0,.12-.38v-8.46h-3.81a.65.65,0,0,0-.41.12.83.83,0,0,0-.23.41h-.29v-2.9h.29a.91.91,0,0,0,.24.41.62.62,0,0,0,.41.12h10.29a.65.65,0,0,0,.42-.12.83.83,0,0,0,.24-.41h.29V194h-.29a.84.84,0,0,0-.23-.41.66.66,0,0,0-.42-.12Z" transform="translate(-98.3 -23.48)"/><path class="cls-3" d="M349.31,197.88v3.05h7.88a.64.64,0,0,0,.41-.11.81.81,0,0,0,.23-.41h.29v2.9h-.29a.81.81,0,0,0-.23-.41.65.65,0,0,0-.41-.11H346.05v-.26a.93.93,0,0,0,.45-.21.53.53,0,0,0,.13-.38v-9.44a.53.53,0,0,0-.12-.38.93.93,0,0,0-.45-.21v-.26H357a.62.62,0,0,0,.41-.12.85.85,0,0,0,.23-.41h.29V194h-.29a.85.85,0,0,0-.23-.41.62.62,0,0,0-.41-.12h-7.66v2.64h5a.63.63,0,0,0,.41-.12.83.83,0,0,0,.23-.41h.29v2.83h-.29a.83.83,0,0,0-.23-.41.63.63,0,0,0-.41-.12Z" transform="translate(-98.3 -23.48)"/><path class="cls-3" d="M369,202.78l-4.51-7.71v6.85a.53.53,0,0,0,.13.38.94.94,0,0,0,.45.21v.26h-3.6v-.26a.94.94,0,0,0,.45-.21.54.54,0,0,0,.13-.38v-9.45a.52.52,0,0,0-.12-.37.94.94,0,0,0-.45-.21v-.26h4.73v.26c-.28.07-.42.22-.42.45a.78.78,0,0,0,.13.38l3.34,5.76,3.39-5.68a1.24,1.24,0,0,0,.22-.54c0-.23-.15-.35-.45-.38v-.26H377v.26a.94.94,0,0,0-.45.21.52.52,0,0,0-.12.37v9.45a.53.53,0,0,0,.13.38.93.93,0,0,0,.45.21v.26h-3.82v-.26a.89.89,0,0,0,.44-.21.54.54,0,0,0,.13-.39v-6.85Z" transform="translate(-98.3 -23.48)"/><path class="cls-3" d="M392,192.56l-1.47,2.63-.25-.14a1,1,0,0,0,0-.13q0-.28-.52-.59a6.87,6.87,0,0,0-3.76-1,6.23,6.23,0,0,0-1.69.21,2.14,2.14,0,0,0-.86.5,1,1,0,0,0-.33.71q0,.63.84.86a16,16,0,0,0,1.85.24l1.41.13a12.93,12.93,0,0,1,2,.34,4.92,4.92,0,0,1,1.38.6,2.94,2.94,0,0,1,1,1.06,2.88,2.88,0,0,1,.36,1.4,3,3,0,0,1-.84,2.09,4.62,4.62,0,0,1-2.35,1.24,10.76,10.76,0,0,1-2.54.29,11.76,11.76,0,0,1-4.81-1.05,2.79,2.79,0,0,0-.6-.21.78.78,0,0,0-.37.18l-.26-.13,1.33-2.74.26.12v.11a.86.86,0,0,0,.39.67,5.07,5.07,0,0,0,1.81.82,8.65,8.65,0,0,0,2.32.34,5.2,5.2,0,0,0,2-.36,2,2,0,0,0,.75-.55,1.13,1.13,0,0,0,.28-.71.84.84,0,0,0-.66-.8,9.51,9.51,0,0,0-1.86-.3l-1.39-.14a19.42,19.42,0,0,1-2-.25,5.56,5.56,0,0,1-1.15-.38,2.89,2.89,0,0,1-1.29-1.1,2.73,2.73,0,0,1-.42-1.52,3,3,0,0,1,1.07-2.34,6.3,6.3,0,0,1,4.22-1.21,10.6,10.6,0,0,1,2.2.22,17.47,17.47,0,0,1,2.54.8,3.09,3.09,0,0,0,.64.18.8.8,0,0,0,.44-.18Z" transform="translate(-98.3 -23.48)"/><path class="cls-3" d="M416.62,198l2.14,2.91-.29.19a.9.9,0,0,0-.52-.27,4.2,4.2,0,0,0-1.14.5,16.05,16.05,0,0,1-3.26,1.37,12.6,12.6,0,0,1-3.15.35,10.55,10.55,0,0,1-6-1.56,6.81,6.81,0,0,1-2.16-2.26,6.79,6.79,0,0,1,.72-7.82q2.45-2.82,7.42-2.82a12.31,12.31,0,0,1,3.13.35,16.92,16.92,0,0,1,3.26,1.37,4.32,4.32,0,0,0,1.14.47.92.92,0,0,0,.52-.26l.29.18-2.14,2.91-.3-.18a2.41,2.41,0,0,0,0-.28.75.75,0,0,0-.28-.55,4.54,4.54,0,0,0-1-.62,9.18,9.18,0,0,0-4.22-1,6.76,6.76,0,0,0-4.2,1.19,4.55,4.55,0,0,0,0,7.32,6.76,6.76,0,0,0,4.2,1.19,9.2,9.2,0,0,0,4.22-1,4.71,4.71,0,0,0,1-.64.76.76,0,0,0,.28-.56,2.15,2.15,0,0,0,0-.27Z" transform="translate(-98.3 -23.48)"/><path class="cls-3" d="M429.27,191.42a7.71,7.71,0,0,1,5.1,1.58,5.31,5.31,0,0,1,2,4.28,5.21,5.21,0,0,1-1,3q-1.87,2.7-6.12,2.7a7.69,7.69,0,0,1-5.08-1.57,5.54,5.54,0,0,1-1.53-2,5.43,5.43,0,0,1,.49-5.25Q425,191.47,429.27,191.42Zm0,1.89a4.51,4.51,0,0,0-2.93.95,3.81,3.81,0,0,0,0,5.88,5,5,0,0,0,5.88,0,3.77,3.77,0,0,0,1.06-1.39,3.66,3.66,0,0,0,.32-1.5,3.6,3.6,0,0,0-1.39-3A4.72,4.72,0,0,0,429.28,193.31Z" transform="translate(-98.3 -23.48)"/><path class="cls-3" d="M447.22,202.78l-4.51-7.71v6.85a.53.53,0,0,0,.13.38.94.94,0,0,0,.45.21v.26h-3.6v-.26a.94.94,0,0,0,.45-.21.54.54,0,0,0,.13-.38v-9.45a.52.52,0,0,0-.12-.37,1,1,0,0,0-.45-.21v-.26h4.73v.26c-.28.07-.42.22-.42.45a.78.78,0,0,0,.13.38l3.34,5.76,3.39-5.68a1.24,1.24,0,0,0,.22-.54q0-.34-.45-.38v-.26h4.63v.26a.93.93,0,0,0-.45.21.52.52,0,0,0-.12.37v9.45a.53.53,0,0,0,.13.38.93.93,0,0,0,.45.21v.26h-3.82v-.26a.89.89,0,0,0,.44-.21.54.54,0,0,0,.13-.39v-6.85Z" transform="translate(-98.3 -23.48)"/><path class="cls-3" d="M466.41,202.78l-4.51-7.71v6.85a.53.53,0,0,0,.13.38.94.94,0,0,0,.45.21v.26h-3.6v-.26a.94.94,0,0,0,.45-.21.53.53,0,0,0,.13-.38v-9.45a.52.52,0,0,0-.12-.37,1,1,0,0,0-.45-.21v-.26h4.73v.26c-.28.07-.42.22-.42.45a.79.79,0,0,0,.13.38l3.34,5.76L470,192.8a1.25,1.25,0,0,0,.22-.54q0-.34-.45-.38v-.26h4.63v.26a.94.94,0,0,0-.45.21.52.52,0,0,0-.12.37v9.45a.53.53,0,0,0,.13.38.94.94,0,0,0,.45.21v.26h-3.82v-.26a.88.88,0,0,0,.44-.21.53.53,0,0,0,.13-.39v-6.85Z" transform="translate(-98.3 -23.48)"/><path class="cls-3" d="M487,199.95h-5.57l-.82,1.57a1.19,1.19,0,0,0-.17.51q0,.36.6.49v.26H477v-.26a1.14,1.14,0,0,0,.55-.23,2.19,2.19,0,0,0,.43-.64l4.52-8.58a1.5,1.5,0,0,0,.22-.65q0-.38-.52-.54v-.26h4.36v.26q-.53.13-.53.48a1.09,1.09,0,0,0,.17.54l4.68,8.61a2.81,2.81,0,0,0,.52.75,1.19,1.19,0,0,0,.6.26v.26h-4.54v-.26c.39-.06.59-.23.59-.5a1.21,1.21,0,0,0-.18-.5Zm-.78-1.54-2-4-2,4Z" transform="translate(-98.3 -23.48)"/><path class="cls-3" d="M497.46,195.14v6.78a.53.53,0,0,0,.13.38.93.93,0,0,0,.45.21v.26h-3.6v-.26a.94.94,0,0,0,.45-.21.53.53,0,0,0,.12-.38v-9.45a.52.52,0,0,0-.12-.37,1,1,0,0,0-.45-.21v-.26h4.17v.26q-.39.09-.39.38a.66.66,0,0,0,.25.43l6.75,6.4v-6.63a.52.52,0,0,0-.12-.37,1,1,0,0,0-.45-.21v-.26h3.6v.26a.94.94,0,0,0-.45.21.52.52,0,0,0-.12.37v9.45a.53.53,0,0,0,.13.38.94.94,0,0,0,.45.21v.26h-3.87v-.26q.38-.07.38-.35c0-.11-.15-.3-.44-.57Z" transform="translate(-98.3 -23.48)"/><path class="cls-3" d="M512.45,201.92v-9.44a.54.54,0,0,0-.12-.38,1,1,0,0,0-.45-.21v-.26h6.84a10.14,10.14,0,0,1,3.45.46,4.78,4.78,0,0,1,2.55,2.25,6,6,0,0,1,.66,2.87,5.23,5.23,0,0,1-2,4.4,5,5,0,0,1-1.92.91,12,12,0,0,1-2.8.27h-6.84v-.26a.94.94,0,0,0,.45-.21A.54.54,0,0,0,512.45,201.92Zm2.68-1h3.36a5.61,5.61,0,0,0,2.42-.4,3.35,3.35,0,0,0,1.74-3.33,3.79,3.79,0,0,0-.93-2.76,3,3,0,0,0-1.26-.75,6.94,6.94,0,0,0-2-.22h-3.36Z" transform="translate(-98.3 -23.48)"/></svg>